name C:\Users\u0101727\Documents\MyRepositories\paper-ad\predictivesimulations_2d/Results/PredSim_2D/IK_c25.mot
datacolumns 11
datarows 34
range 0.00000000 0.24165000
endheader
time	pelvis_tilt	pelvis_tx	pelvis_ty	hip_flexion_l	hip_flexion_r	knee_angle_l	knee_angle_r	ankle_angle_l	ankle_angle_r	lumbar_extension	
          0.00000000	        -11.84981972	          0.00000000	          0.94715737	         -0.07379346	         32.32587284	          2.62771651	        -34.69136140	         -0.98443618	        -12.32429208	          7.07977616	
          0.00732273	        -11.92460809	          0.00872055	          0.94159281	         -0.56206393	         33.24343070	          3.43857930	        -34.15883597	          0.56210628	        -10.75822249	          6.94316770	
          0.01464545	        -11.98964821	          0.01755421	          0.93552579	         -1.03948329	         34.07506674	          4.14813234	        -33.73032745	          2.16961499	         -9.07377883	          6.81633159	
          0.02196818	        -12.04390773	          0.02651533	          0.92897107	         -1.50782255	         34.81366330	          4.75090938	        -33.45184742	          3.83246344	         -7.24921542	          6.70090139	
          0.02929091	        -12.08662630	          0.03561856	          0.92195080	         -1.96727082	         35.44642044	          5.23044565	        -33.37530720	          5.54175954	         -5.27079403	          6.59858841	
          0.03661364	        -12.11744786	          0.04488293	          0.91450259	         -2.41665559	         35.94705472	          5.55181547	        -33.56441492	          7.29805506	         -3.13113492	          6.51176370	
          0.04393636	        -12.13733770	          0.05434171	          0.90669821	         -2.86096239	         36.26066336	          5.66930505	        -34.09590327	          9.08760979	         -0.85593328	          6.44567164	
          0.05125909	        -12.14787938	          0.06406153	          0.89870866	         -3.31941266	         36.29582372	          5.37779934	        -35.08460403	         10.86067052	          1.44441430	          6.41014675	
          0.05858182	        -12.15565456	          0.07391758	          0.89095904	         -3.78635240	         36.12574422	          4.78387275	        -36.28010852	         12.63377874	          3.75318191	          6.39626027	
          0.06590455	        -12.16556875	          0.08380676	          0.88416011	         -4.24641297	         35.87757063	          4.16866671	        -37.35790120	         14.42936623	          6.12352124	          6.39533322	
          0.07322727	        -12.17946914	          0.09385212	          0.87884534	         -4.69177921	         35.57219748	          3.52268274	        -38.32699812	         16.07420628	          8.36036436	          6.42391243	
          0.08055000	        -12.19264561	          0.10412746	          0.87505563	         -5.10162417	         35.20494876	          2.81500067	        -39.16844720	         17.37524514	         10.27366387	          6.48547827	
          0.08787273	        -12.19685531	          0.11460868	          0.87250972	         -5.44664274	         34.74945813	          1.98744907	        -39.84859038	         18.27423109	         11.85295498	          6.56839160	
          0.09519546	        -12.19242437	          0.12521315	          0.87087228	         -5.69675915	         34.19771165	          1.00332308	        -40.34039522	         18.76583611	         13.09108291	          6.66465133	
          0.10251818	        -12.18163161	          0.13587154	          0.86994528	         -5.84896790	         33.53918944	         -0.12637558	        -40.61198052	         18.87873911	         13.98760444	          6.77007086	
          0.10984091	        -12.16593335	          0.14654558	          0.86968508	         -5.91296128	         32.77606861	         -1.38027960	        -40.66187905	         18.64601397	         14.56290897	          6.88301726	
          0.11716364	        -12.14475974	          0.15723807	          0.87014754	         -5.89290604	         31.91190005	         -2.75267381	        -40.49651579	         18.08097096	         14.82754405	          7.00421070	
          0.12448637	        -12.11657097	          0.16796968	          0.87139613	         -5.78882641	         30.94727671	         -4.24084217	        -40.11727694	         17.17573061	         14.76996696	          7.13520572	
          0.13180909	        -12.07963686	          0.17875286	          0.87346598	         -5.59546767	         29.88786016	         -5.84719228	        -39.53503259	         15.91166855	         14.38666497	          7.27619301	
          0.13913182	        -12.03215372	          0.18959580	          0.87636671	         -5.30426410	         28.74173021	         -7.57666635	        -38.76558444	         14.26643086	         13.67918066	          7.42666057	
          0.14645455	        -11.97226324	          0.20050325	          0.88008559	         -4.90447175	         27.51883851	         -9.43571990	        -37.82781189	         12.21581429	         12.64894142	          7.58547815	
          0.15377728	        -11.89830284	          0.21147455	          0.88458911	         -4.38290407	         26.23091576	        -11.42946051	        -36.74200030	          9.73227299	         11.29581894	          7.75083681	
          0.16110000	        -11.80902883	          0.22250269	          0.88981930	         -3.72680598	         24.89124132	        -13.57064595	        -35.53057671	          6.79951049	          9.62541701	          7.92019692	
          0.16842273	        -11.70430521	          0.23355878	          0.89568695	         -2.91712076	         23.51995619	        -15.84346562	        -34.22518582	          3.37536403	          7.64585451	          8.08881342	
          0.17574546	        -11.58552798	          0.24461221	          0.90207517	         -1.95263099	         22.14174802	        -18.25856663	        -32.86336350	         -0.56752354	          5.36868631	          8.25239079	
          0.18306818	        -11.45722551	          0.25562016	          0.90883362	         -0.86907850	         20.78885389	        -20.64588559	        -31.48745910	         -4.53905008	          2.82004684	          8.40739132	
          0.19039091	        -11.32593148	          0.26652442	          0.91576597	          0.29009781	         19.49174822	        -22.85120566	        -30.14530167	         -8.07416843	          0.09361255	          8.54982161	
          0.19771364	        -11.19649851	          0.27730466	          0.92271519	          1.50335783	         18.24919217	        -24.92840488	        -28.83050414	        -11.19824810	         -2.72973080	          8.67848651	
          0.20503637	        -11.07211294	          0.28795687	          0.92959106	          2.76461458	         17.05366789	        -26.87429190	        -27.57617746	        -13.93363551	         -5.56595185	          8.79185327	
          0.21235909	        -10.95955259	          0.29840957	          0.93627411	          4.06550693	         15.96522168	        -28.66054712	        -26.34147850	        -16.30575023	         -7.98445669	          8.88251738	
          0.21968182	        -10.86517200	          0.30865461	          0.94254002	          5.39885922	         14.95106217	        -30.28655814	        -25.03936765	        -18.33428224	         -9.84160441	          8.95074706	
          0.22700455	        -10.79032142	          0.31873328	          0.94823198	          6.76081476	         13.93667138	        -31.77389875	        -23.67485118	        -20.03304056	        -11.36162440	          9.00012862	
          0.23432728	        -10.73545387	          0.32862833	          0.95334040	          8.14916936	         12.93999962	        -33.11749441	        -22.24244217	        -21.42022935	        -12.56190877	          9.02816987	
          0.24165000	        -10.70031350	          0.33834050	          0.95786472	          9.56025129	         11.96652227	        -34.31290736	        -20.75709988	        -22.51283362	        -13.44370437	          9.03474026	
